<svg width="512" height="512" viewBox="0 0 512 512" fill="none" xmlns="http://www.w3.org/2000/svg">
<rect width="512" height="512" rx="256" fill="#13181E"/>
<path fill-rule="evenodd" clip-rule="evenodd" d="M341.55 250.349V328.789H131L178.248 267.321L134.67 276.495L174.119 221.45L201.642 214.11L234.211 169.156L284.67 155.394L340.633 82L363.11 130.165L352.101 166.404L381 159.523V196.22L341.55 250.349ZM249.349 182L265.404 178.789L249.349 202.642L231.459 206.771L249.349 182ZM319.073 250.349V307.688H239.257L289.257 238.881L244.761 250.349L340.633 119.156L347.514 130.165L324.119 191.174L363.11 182V191.174L319.073 250.349Z" fill="#DBBC4C"/>
<path d="M122.052 378.767C122.035 378.343 122.076 378.002 122.174 377.741C122.271 377.481 122.475 377.277 122.784 377.131C123.11 376.984 123.565 376.887 124.151 376.838C124.737 376.773 125.519 376.74 126.495 376.74C127.455 376.74 128.229 376.773 128.814 376.838C129.4 376.887 129.848 376.984 130.157 377.131C130.483 377.277 130.694 377.481 130.792 377.741C130.906 378.002 130.955 378.343 130.938 378.767L129.938 413.459H136.31C136.733 413.459 137.058 413.5 137.286 413.581C137.53 413.646 137.701 413.768 137.799 413.947C137.913 414.11 137.978 414.338 137.994 414.631C138.027 414.924 138.043 415.29 138.043 415.729C138.043 416.169 138.027 416.535 137.994 416.828C137.978 417.121 137.913 417.357 137.799 417.536C137.701 417.699 137.53 417.821 137.286 417.902C137.058 417.967 136.733 418 136.31 418H126.495C125.746 418 125.144 417.984 124.688 417.951C124.249 417.919 123.915 417.845 123.688 417.731C123.46 417.618 123.305 417.455 123.224 417.243C123.159 417.015 123.118 416.714 123.102 416.34L122.052 378.767ZM141.485 390.437C141.485 390.095 141.518 389.81 141.583 389.582C141.664 389.338 141.843 389.151 142.12 389.021C142.397 388.89 142.796 388.801 143.316 388.752C143.854 388.687 144.562 388.654 145.44 388.654C146.319 388.654 147.019 388.687 147.54 388.752C148.077 388.801 148.484 388.89 148.761 389.021C149.037 389.151 149.208 389.338 149.273 389.582C149.355 389.81 149.396 390.095 149.396 390.437L148.834 410.358C148.818 411.075 148.899 411.66 149.078 412.116C149.257 412.572 149.493 412.938 149.786 413.215C150.095 413.475 150.437 413.662 150.812 413.776C151.186 413.874 151.568 413.923 151.959 413.923C152.659 413.923 153.285 413.776 153.839 413.483C154.392 413.174 154.881 412.832 155.304 412.458L154.669 390.437C154.669 390.095 154.701 389.81 154.767 389.582C154.848 389.338 155.027 389.151 155.304 389.021C155.58 388.89 155.979 388.801 156.5 388.752C157.037 388.687 157.745 388.654 158.624 388.654C159.503 388.654 160.203 388.687 160.724 388.752C161.261 388.801 161.668 388.89 161.944 389.021C162.221 389.151 162.392 389.338 162.457 389.582C162.538 389.81 162.579 390.095 162.579 390.437L161.822 416.608C161.822 416.918 161.782 417.162 161.7 417.341C161.619 417.52 161.464 417.658 161.236 417.756C161.008 417.854 160.683 417.919 160.26 417.951C159.853 417.984 159.308 418 158.624 418C157.989 418 157.477 417.984 157.086 417.951C156.712 417.919 156.419 417.854 156.207 417.756C156.012 417.658 155.873 417.52 155.792 417.341C155.727 417.162 155.694 416.918 155.694 416.608L155.646 415.461C155.287 415.786 154.881 416.12 154.425 416.462C153.969 416.804 153.448 417.113 152.862 417.39C152.293 417.65 151.658 417.862 150.958 418.024C150.274 418.203 149.518 418.293 148.688 418.293C146.669 418.293 145.082 417.715 143.927 416.56C142.771 415.404 142.161 413.703 142.096 411.457L141.485 390.437ZM168.487 390.437C168.471 390.095 168.495 389.81 168.561 389.582C168.642 389.338 168.813 389.151 169.073 389.021C169.334 388.89 169.708 388.801 170.196 388.752C170.701 388.687 171.368 388.654 172.198 388.654C173.028 388.654 173.688 388.687 174.176 388.752C174.68 388.801 175.063 388.89 175.323 389.021C175.584 389.151 175.746 389.338 175.812 389.582C175.893 389.81 175.925 390.095 175.909 390.437L175.885 391.291C176.275 390.9 176.69 390.534 177.13 390.192C177.569 389.834 178.041 389.525 178.546 389.265C179.05 388.988 179.579 388.768 180.133 388.605C180.686 388.443 181.28 388.361 181.915 388.361C183.054 388.361 184.088 388.565 185.016 388.972C185.943 389.362 186.733 389.916 187.384 390.632C188.051 391.348 188.556 392.202 188.897 393.195C189.239 394.188 189.394 395.271 189.361 396.442L188.922 410.188C188.873 411.652 188.678 412.906 188.336 413.947C187.994 414.973 187.522 415.811 186.92 416.462C186.334 417.097 185.618 417.561 184.771 417.854C183.925 418.146 182.981 418.293 181.939 418.293C180.589 418.293 179.409 418.073 178.399 417.634C177.39 417.178 176.536 416.674 175.836 416.12L175.616 426.862C175.616 427.172 175.576 427.416 175.494 427.595C175.413 427.774 175.258 427.912 175.03 428.01C174.802 428.107 174.485 428.173 174.078 428.205C173.671 428.238 173.126 428.254 172.442 428.254C171.759 428.254 171.205 428.238 170.782 428.205C170.375 428.173 170.058 428.107 169.83 428.01C169.618 427.912 169.472 427.774 169.391 427.595C169.326 427.416 169.293 427.172 169.293 426.862L168.487 390.437ZM175.909 412.897C176.284 413.174 176.715 413.418 177.203 413.63C177.708 413.825 178.269 413.923 178.888 413.923C179.929 413.923 180.743 413.605 181.329 412.971C181.931 412.32 182.216 411.392 182.184 410.188L181.817 396.442C181.801 395.889 181.712 395.417 181.549 395.026C181.402 394.636 181.199 394.326 180.938 394.099C180.694 393.854 180.41 393.684 180.084 393.586C179.758 393.472 179.417 393.415 179.059 393.415C178.57 393.415 178.082 393.513 177.594 393.708C177.122 393.903 176.699 394.139 176.324 394.416L175.909 412.897ZM199.151 384.797C198.354 384.797 197.711 384.781 197.223 384.748C196.751 384.715 196.384 384.65 196.124 384.553C195.88 384.455 195.709 384.317 195.611 384.138C195.53 383.959 195.489 383.715 195.489 383.405L195.196 378.645C195.196 378.303 195.229 378.018 195.294 377.79C195.375 377.546 195.554 377.359 195.831 377.229C196.108 377.098 196.507 377.009 197.027 376.96C197.564 376.895 198.272 376.862 199.151 376.862C200.03 376.862 200.73 376.895 201.251 376.96C201.788 377.009 202.195 377.098 202.472 377.229C202.748 377.359 202.919 377.546 202.984 377.79C203.066 378.018 203.106 378.303 203.106 378.645L202.838 383.405C202.838 383.715 202.789 383.959 202.691 384.138C202.61 384.317 202.439 384.455 202.179 384.553C201.918 384.65 201.544 384.715 201.056 384.748C200.584 384.781 199.949 384.797 199.151 384.797ZM195.05 390.437C195.05 390.095 195.082 389.81 195.147 389.582C195.229 389.338 195.408 389.151 195.685 389.021C195.961 388.89 196.36 388.801 196.881 388.752C197.418 388.687 198.126 388.654 199.005 388.654C199.884 388.654 200.584 388.687 201.104 388.752C201.642 388.801 202.049 388.89 202.325 389.021C202.602 389.151 202.773 389.338 202.838 389.582C202.919 389.81 202.96 390.095 202.96 390.437L202.203 416.608C202.203 416.918 202.162 417.162 202.081 417.341C202 417.52 201.845 417.658 201.617 417.756C201.389 417.854 201.064 417.919 200.641 417.951C200.234 417.984 199.688 418 199.005 418C198.321 418 197.768 417.984 197.345 417.951C196.938 417.919 196.62 417.854 196.393 417.756C196.181 417.658 196.035 417.52 195.953 417.341C195.872 417.162 195.831 416.918 195.831 416.608L195.05 390.437ZM208.917 390.437C208.917 390.095 208.95 389.81 209.015 389.582C209.096 389.338 209.259 389.151 209.503 389.021C209.763 388.89 210.138 388.801 210.626 388.752C211.131 388.687 211.798 388.654 212.628 388.654C213.458 388.654 214.117 388.687 214.605 388.752C215.11 388.801 215.484 388.89 215.729 389.021C215.989 389.151 216.152 389.338 216.217 389.582C216.298 389.81 216.339 390.095 216.339 390.437L216.29 391.926C216.746 391.405 217.21 390.933 217.682 390.51C218.17 390.07 218.683 389.696 219.22 389.387C219.773 389.061 220.359 388.809 220.978 388.63C221.596 388.451 222.271 388.361 223.004 388.361C223.997 388.361 224.916 388.54 225.763 388.898C226.625 389.257 227.358 389.777 227.96 390.461C228.578 391.145 229.05 391.975 229.376 392.951C229.718 393.928 229.872 395.035 229.84 396.271L229.254 416.608C229.254 416.918 229.213 417.162 229.132 417.341C229.05 417.52 228.896 417.658 228.668 417.756C228.44 417.854 228.115 417.919 227.691 417.951C227.285 417.984 226.739 418 226.056 418C225.372 418 224.819 417.984 224.396 417.951C223.989 417.919 223.671 417.854 223.443 417.756C223.232 417.658 223.085 417.52 223.004 417.341C222.923 417.162 222.882 416.918 222.882 416.608L222.32 396.979C222.304 396.345 222.223 395.816 222.076 395.393C221.93 394.969 221.734 394.636 221.49 394.392C221.246 394.147 220.953 393.977 220.611 393.879C220.286 393.781 219.928 393.732 219.537 393.732C218.919 393.732 218.373 393.903 217.901 394.245C217.429 394.587 217.022 394.994 216.681 395.466L216.07 416.608C216.07 416.918 216.03 417.162 215.948 417.341C215.867 417.52 215.712 417.658 215.484 417.756C215.257 417.854 214.931 417.919 214.508 417.951C214.101 417.984 213.556 418 212.872 418C212.188 418 211.635 417.984 211.212 417.951C210.805 417.919 210.488 417.854 210.26 417.756C210.048 417.658 209.902 417.52 209.82 417.341C209.739 417.162 209.698 416.918 209.698 416.608L208.917 390.437ZM235.04 395.783C234.991 394.481 235.26 393.366 235.846 392.438C236.448 391.494 237.245 390.721 238.238 390.119C239.247 389.517 240.395 389.077 241.681 388.801C242.983 388.508 244.309 388.361 245.66 388.361C246.946 388.361 248.207 388.508 249.444 388.801C250.681 389.077 251.78 389.517 252.74 390.119C253.701 390.721 254.457 391.494 255.011 392.438C255.58 393.366 255.841 394.481 255.792 395.783L255.426 404.792C255.41 405.101 255.353 405.345 255.255 405.524C255.174 405.703 255.011 405.842 254.767 405.939C254.522 406.037 254.173 406.102 253.717 406.135C253.277 406.167 252.691 406.184 251.959 406.184H242.438L242.291 411.457C242.275 412.076 242.332 412.596 242.462 413.02C242.608 413.443 242.82 413.785 243.097 414.045C243.373 414.305 243.715 414.493 244.122 414.606C244.529 414.72 244.993 414.777 245.514 414.777C246.555 414.777 247.32 414.549 247.809 414.094C248.297 413.638 248.541 412.832 248.541 411.677V410.92C248.541 410.611 248.582 410.358 248.663 410.163C248.744 409.951 248.899 409.789 249.127 409.675C249.371 409.545 249.713 409.455 250.152 409.406C250.592 409.357 251.178 409.333 251.91 409.333C252.626 409.333 253.204 409.357 253.644 409.406C254.083 409.455 254.417 409.545 254.645 409.675C254.889 409.789 255.043 409.943 255.108 410.139C255.19 410.334 255.23 410.586 255.23 410.896V411.97C255.23 413.256 254.954 414.305 254.4 415.119C253.847 415.933 253.115 416.576 252.203 417.048C251.308 417.52 250.274 417.845 249.103 418.024C247.947 418.203 246.759 418.293 245.538 418.293C244.301 418.293 243.097 418.179 241.925 417.951C240.753 417.707 239.703 417.316 238.775 416.779C237.864 416.226 237.115 415.502 236.529 414.606C235.96 413.711 235.65 412.596 235.602 411.262L235.04 395.783ZM248.541 402.521L248.297 395.368C248.281 394.685 248.199 394.131 248.053 393.708C247.923 393.285 247.735 392.959 247.491 392.731C247.263 392.504 246.987 392.357 246.661 392.292C246.352 392.211 246.018 392.17 245.66 392.17C245.253 392.17 244.879 392.211 244.537 392.292C244.195 392.357 243.894 392.504 243.634 392.731C243.39 392.959 243.186 393.285 243.023 393.708C242.877 394.131 242.796 394.685 242.779 395.368L242.56 402.521H248.541ZM273.517 378.767C273.5 378.343 273.557 378.002 273.688 377.741C273.818 377.481 274.046 377.277 274.371 377.131C274.713 376.984 275.169 376.887 275.738 376.838C276.324 376.773 277.065 376.74 277.96 376.74C278.774 376.74 279.457 376.765 280.011 376.813C280.564 376.846 281.012 376.911 281.354 377.009C281.712 377.106 281.98 377.245 282.159 377.424C282.354 377.603 282.493 377.823 282.574 378.083L289.361 398.835H289.63L296.319 378.083C296.384 377.823 296.507 377.603 296.686 377.424C296.865 377.245 297.125 377.106 297.467 377.009C297.809 376.911 298.24 376.846 298.761 376.813C299.282 376.765 299.924 376.74 300.689 376.74C301.65 376.74 302.423 376.773 303.009 376.838C303.595 376.887 304.05 376.984 304.376 377.131C304.701 377.277 304.913 377.481 305.011 377.741C305.125 378.002 305.174 378.343 305.157 378.767L304.083 416.34C304.067 416.714 304.026 417.015 303.961 417.243C303.896 417.455 303.749 417.618 303.521 417.731C303.31 417.845 303.001 417.919 302.594 417.951C302.187 417.984 301.633 418 300.934 418C300.25 418 299.697 417.984 299.273 417.951C298.867 417.919 298.557 417.845 298.346 417.731C298.134 417.618 297.988 417.455 297.906 417.243C297.841 417.015 297.809 416.714 297.809 416.34L297.979 390.046H297.662L292.047 409.553C291.949 409.862 291.843 410.114 291.729 410.31C291.632 410.505 291.485 410.66 291.29 410.773C291.095 410.871 290.826 410.936 290.484 410.969C290.159 411.001 289.719 411.018 289.166 411.018C288.678 411.018 288.287 411.001 287.994 410.969C287.701 410.92 287.465 410.847 287.286 410.749C287.123 410.635 286.993 410.489 286.896 410.31C286.798 410.114 286.7 409.862 286.603 409.553L281.061 390.046H280.743L280.865 416.34C280.865 416.714 280.825 417.015 280.743 417.243C280.678 417.455 280.532 417.618 280.304 417.731C280.092 417.845 279.783 417.919 279.376 417.951C278.969 417.984 278.416 418 277.716 418C277.016 418 276.463 417.984 276.056 417.951C275.649 417.919 275.331 417.845 275.104 417.731C274.892 417.618 274.754 417.455 274.688 417.243C274.623 417.015 274.583 416.714 274.566 416.34L273.517 378.767ZM310.919 395.783C310.87 394.481 311.131 393.366 311.7 392.438C312.286 391.494 313.067 390.721 314.044 390.119C315.037 389.517 316.176 389.077 317.462 388.801C318.748 388.508 320.066 388.361 321.417 388.361C322.768 388.361 324.086 388.508 325.372 388.801C326.658 389.077 327.789 389.517 328.766 390.119C329.758 390.721 330.54 391.494 331.109 392.438C331.695 393.366 331.964 394.481 331.915 395.783L331.354 411.237C331.305 412.572 330.995 413.695 330.426 414.606C329.856 415.502 329.116 416.226 328.204 416.779C327.293 417.316 326.251 417.707 325.079 417.951C323.907 418.179 322.695 418.293 321.441 418.293C320.172 418.293 318.951 418.179 317.779 417.951C316.607 417.707 315.558 417.316 314.63 416.779C313.718 416.226 312.978 415.502 312.408 414.606C311.839 413.711 311.529 412.596 311.48 411.262L310.919 395.783ZM318.17 411.457C318.154 412.076 318.202 412.596 318.316 413.02C318.447 413.443 318.642 413.785 318.902 414.045C319.179 414.305 319.521 414.493 319.928 414.606C320.351 414.72 320.847 414.777 321.417 414.777C322.556 414.777 323.386 414.533 323.907 414.045C324.444 413.557 324.697 412.686 324.664 411.433L324.176 395.368C324.16 394.685 324.078 394.131 323.932 393.708C323.801 393.285 323.614 392.959 323.37 392.731C323.126 392.504 322.841 392.357 322.516 392.292C322.19 392.211 321.824 392.17 321.417 392.17C321.01 392.17 320.644 392.211 320.318 392.292C319.993 392.357 319.708 392.504 319.464 392.731C319.22 392.959 319.024 393.285 318.878 393.708C318.748 394.131 318.674 394.685 318.658 395.368L318.17 411.457ZM337.335 395.783C337.286 394.481 337.547 393.366 338.116 392.438C338.702 391.494 339.483 390.721 340.46 390.119C341.453 389.517 342.592 389.077 343.878 388.801C345.164 388.508 346.482 388.361 347.833 388.361C349.184 388.361 350.502 388.508 351.788 388.801C353.074 389.077 354.205 389.517 355.182 390.119C356.174 390.721 356.956 391.494 357.525 392.438C358.111 393.366 358.38 394.481 358.331 395.783L357.77 411.237C357.721 412.572 357.411 413.695 356.842 414.606C356.272 415.502 355.532 416.226 354.62 416.779C353.709 417.316 352.667 417.707 351.495 417.951C350.323 418.179 349.111 418.293 347.857 418.293C346.588 418.293 345.367 418.179 344.195 417.951C343.023 417.707 341.974 417.316 341.046 416.779C340.134 416.226 339.394 415.502 338.824 414.606C338.255 413.711 337.945 412.596 337.896 411.262L337.335 395.783ZM344.586 411.457C344.57 412.076 344.618 412.596 344.732 413.02C344.863 413.443 345.058 413.785 345.318 414.045C345.595 414.305 345.937 414.493 346.344 414.606C346.767 414.72 347.263 414.777 347.833 414.777C348.972 414.777 349.802 414.533 350.323 414.045C350.86 413.557 351.113 412.686 351.08 411.433L350.592 395.368C350.576 394.685 350.494 394.131 350.348 393.708C350.217 393.285 350.03 392.959 349.786 392.731C349.542 392.504 349.257 392.357 348.932 392.292C348.606 392.211 348.24 392.17 347.833 392.17C347.426 392.17 347.06 392.211 346.734 392.292C346.409 392.357 346.124 392.504 345.88 392.731C345.636 392.959 345.44 393.285 345.294 393.708C345.164 394.131 345.09 394.685 345.074 395.368L344.586 411.457ZM363.995 390.437C363.995 390.095 364.028 389.81 364.093 389.582C364.174 389.338 364.337 389.151 364.581 389.021C364.841 388.89 365.216 388.801 365.704 388.752C366.209 388.687 366.876 388.654 367.706 388.654C368.536 388.654 369.195 388.687 369.684 388.752C370.188 388.801 370.562 388.89 370.807 389.021C371.067 389.151 371.23 389.338 371.295 389.582C371.376 389.81 371.417 390.095 371.417 390.437L371.368 391.926C371.824 391.405 372.288 390.933 372.76 390.51C373.248 390.07 373.761 389.696 374.298 389.387C374.851 389.061 375.437 388.809 376.056 388.63C376.674 388.451 377.35 388.361 378.082 388.361C379.075 388.361 379.994 388.54 380.841 388.898C381.703 389.257 382.436 389.777 383.038 390.461C383.657 391.145 384.129 391.975 384.454 392.951C384.796 393.928 384.951 395.035 384.918 396.271L384.332 416.608C384.332 416.918 384.291 417.162 384.21 417.341C384.129 417.52 383.974 417.658 383.746 417.756C383.518 417.854 383.193 417.919 382.77 417.951C382.363 417.984 381.817 418 381.134 418C380.45 418 379.897 417.984 379.474 417.951C379.067 417.919 378.749 417.854 378.521 417.756C378.31 417.658 378.163 417.52 378.082 417.341C378.001 417.162 377.96 416.918 377.96 416.608L377.398 396.979C377.382 396.345 377.301 395.816 377.154 395.393C377.008 394.969 376.812 394.636 376.568 394.392C376.324 394.147 376.031 393.977 375.689 393.879C375.364 393.781 375.006 393.732 374.615 393.732C373.997 393.732 373.451 393.903 372.979 394.245C372.507 394.587 372.101 394.994 371.759 395.466L371.148 416.608C371.148 416.918 371.108 417.162 371.026 417.341C370.945 417.52 370.79 417.658 370.562 417.756C370.335 417.854 370.009 417.919 369.586 417.951C369.179 417.984 368.634 418 367.95 418C367.267 418 366.713 417.984 366.29 417.951C365.883 417.919 365.566 417.854 365.338 417.756C365.126 417.658 364.98 417.52 364.898 417.341C364.817 417.162 364.776 416.918 364.776 416.608L363.995 390.437Z" fill="#DBBC4C"/>
</svg>
